<?xml version="1.0" encoding="UTF-8" standalone="no"?>
<svg xmlns="http://www.w3.org/2000/svg" xmlns:xlink="http://www.w3.org/1999/xlink" width="500" zoomAndPan="magnify" viewBox="0 0 375 375" height="500" preserveAspectRatio="xMidYMid meet" version="1.0">
    <defs>
        <clipPath id="f8d80a1867">
            <path d="M 0 132 L 357.175781 132 L 357.175781 310.332031 L 0 310.332031 Z M 0 132 " clip-rule="nonzero"/>
        </clipPath>
        <clipPath id="7d7fedd5f7">
            <path d="M 0 123.613281 L 375 123.613281 L 375 311.128906 L 0 311.128906 Z M 0 123.613281 " clip-rule="nonzero"/>
        </clipPath>
        <clipPath id="d36c858e64">
            <path d="M 170.105469 276.320312 L 204.894531 276.320312 L 204.894531 311.113281 L 170.105469 311.113281 Z M 170.105469 276.320312 " clip-rule="nonzero"/>
        </clipPath>
        <clipPath id="09e7fc376e">
            <path d="M 187.5 276.320312 C 177.890625 276.320312 170.105469 284.109375 170.105469 293.71875 C 170.105469 303.324219 177.890625 311.113281 187.5 311.113281 C 197.109375 311.113281 204.894531 303.324219 204.894531 293.71875 C 204.894531 284.109375 197.109375 276.320312 187.5 276.320312 " clip-rule="nonzero"/>
        </clipPath>
    </defs>
    <g clip-path="url(#f8d80a1867)">
        <path fill="#000000" d="M 357.132812 310.277344 L 353.851562 310.277344 C 353.851562 214.023438 275.21875 135.707031 178.566406 135.707031 C 81.910156 135.707031 3.28125 214.023438 3.28125 310.277344 L 0 310.277344 C 0 307.738281 0.0585938 305.199219 0.167969 302.664062 C 0.28125 300.125 0.445312 297.59375 0.664062 295.0625 C 0.882812 292.53125 1.160156 290.007812 1.488281 287.492188 C 1.816406 284.972656 2.199219 282.460938 2.632812 279.960938 C 3.070312 277.457031 3.558594 274.964844 4.101562 272.484375 C 4.648438 270.003906 5.242188 267.535156 5.894531 265.078125 C 6.542969 262.625 7.246094 260.183594 8 257.757812 C 8.753906 255.332031 9.558594 252.921875 10.417969 250.53125 C 11.277344 248.140625 12.183594 245.769531 13.144531 243.417969 C 14.105469 241.0625 15.113281 238.734375 16.175781 236.421875 C 17.234375 234.113281 18.34375 231.828125 19.503906 229.566406 C 20.664062 227.304688 21.871094 225.066406 23.125 222.855469 C 24.378906 220.644531 25.679688 218.460938 27.027344 216.308594 C 28.378906 214.152344 29.773438 212.027344 31.210938 209.929688 C 32.652344 207.835938 34.136719 205.769531 35.664062 203.738281 C 37.195312 201.707031 38.765625 199.707031 40.382812 197.742188 C 41.996094 195.777344 43.652344 193.847656 45.351562 191.953125 C 47.046875 190.058594 48.785156 188.199219 50.5625 186.378906 C 52.339844 184.558594 54.15625 182.777344 56.011719 181.035156 C 57.863281 179.289062 59.757812 177.589844 61.683594 175.925781 C 63.609375 174.261719 65.574219 172.640625 67.570312 171.0625 C 69.566406 169.484375 71.597656 167.949219 73.660156 166.457031 C 75.722656 164.964844 77.820312 163.515625 79.945312 162.113281 C 82.070312 160.710938 84.222656 159.355469 86.40625 158.042969 C 88.59375 156.734375 90.804688 155.46875 93.042969 154.253906 C 95.277344 153.035156 97.542969 151.867188 99.832031 150.746094 C 102.121094 149.628906 104.429688 148.554688 106.765625 147.535156 C 109.101562 146.511719 111.453125 145.542969 113.832031 144.621094 C 116.207031 143.699219 118.601562 142.832031 121.015625 142.011719 C 123.429688 141.191406 125.859375 140.425781 128.304688 139.710938 C 130.753906 138.996094 133.214844 138.332031 135.6875 137.722656 C 138.164062 137.113281 140.652344 136.554688 143.148438 136.050781 C 145.648438 135.546875 148.160156 135.09375 150.675781 134.699219 C 153.195312 134.300781 155.722656 133.957031 158.253906 133.667969 C 160.789062 133.378906 163.324219 133.144531 165.867188 132.960938 C 168.414062 132.78125 170.957031 132.652344 173.507812 132.582031 C 176.054688 132.507812 178.605469 132.492188 181.15625 132.527344 C 183.703125 132.5625 186.253906 132.652344 188.796875 132.796875 C 191.34375 132.941406 193.886719 133.140625 196.421875 133.394531 C 198.960938 133.648438 201.488281 133.957031 204.015625 134.316406 C 206.539062 134.675781 209.054688 135.09375 211.558594 135.558594 C 214.066406 136.027344 216.558594 136.550781 219.042969 137.125 C 221.527344 137.699219 223.996094 138.328125 226.453125 139.007812 C 228.910156 139.6875 231.351562 140.421875 233.777344 141.203125 C 236.203125 141.988281 238.609375 142.824219 241 143.710938 C 243.386719 144.597656 245.757812 145.535156 248.105469 146.523438 C 250.453125 147.511719 252.78125 148.550781 255.085938 149.636719 C 257.390625 150.722656 259.671875 151.859375 261.925781 153.042969 C 264.179688 154.230469 266.410156 155.460938 268.613281 156.742188 C 270.816406 158.019531 272.988281 159.347656 275.132812 160.71875 C 277.28125 162.089844 279.394531 163.507812 281.480469 164.96875 C 283.5625 166.433594 285.617188 167.9375 287.636719 169.488281 C 289.65625 171.039062 291.640625 172.632812 293.59375 174.265625 C 295.542969 175.902344 297.460938 177.578125 299.339844 179.292969 C 301.21875 181.007812 303.058594 182.765625 304.863281 184.558594 C 306.667969 186.355469 308.429688 188.1875 310.15625 190.058594 C 311.878906 191.929688 313.566406 193.835938 315.207031 195.777344 C 316.851562 197.71875 318.449219 199.695312 320.007812 201.703125 C 321.566406 203.714844 323.082031 205.757812 324.550781 207.832031 C 326.019531 209.90625 327.445312 212.011719 328.824219 214.148438 C 330.207031 216.285156 331.539062 218.449219 332.824219 220.640625 C 334.113281 222.832031 335.351562 225.050781 336.542969 227.296875 C 337.734375 229.542969 338.875 231.8125 339.96875 234.105469 C 341.0625 236.402344 342.105469 238.71875 343.101562 241.054688 C 347.753906 252.003906 351.261719 263.308594 353.625 274.960938 C 355.984375 286.617188 357.15625 298.386719 357.132812 310.277344 Z M 357.132812 310.277344 " fill-opacity="1" fill-rule="nonzero"/>
    </g>
    <g clip-path="url(#7d7fedd5f7)">
        <path fill="#000000" d="M 375.03125 311.128906 L 354.871094 311.128906 C 354.871094 218.847656 279.796875 143.769531 187.515625 143.769531 C 95.234375 143.769531 20.15625 218.847656 20.15625 311.128906 L 0 311.128906 C 0 207.730469 84.117188 123.613281 187.515625 123.613281 C 290.914062 123.613281 375.03125 207.730469 375.03125 311.128906 Z M 375.03125 311.128906 " fill-opacity="1" fill-rule="nonzero"/>
    </g>
    <path stroke-linecap="butt" transform="matrix(1.075381, -1.432856, 1.428348, 1.071998, 192.941111, 276.046035)" fill="none" stroke-linejoin="miter" d="M 0.000876542 3.500095 L 129.287515 3.499253 " stroke="#000000" stroke-width="7" stroke-opacity="1" stroke-miterlimit="4"/>
    <path stroke-linecap="round" transform="matrix(1.075381, -1.432856, 1.428348, 1.071998, 192.941111, 276.046035)" fill-opacity="1" fill="#000000" fill-rule="nonzero" stroke-linejoin="round" d="M 131.037551 -6.999056 L 145.037118 3.499722 L 131.037925 14.001214 L 131.037551 -6.999056 " stroke="#000000" stroke-width="7" stroke-opacity="1" stroke-miterlimit="4"/>
    <g clip-path="url(#d36c858e64)">
        <g clip-path="url(#09e7fc376e)">
            <path fill="#222222" d="M 170.105469 276.320312 L 204.894531 276.320312 L 204.894531 311.113281 L 170.105469 311.113281 Z M 170.105469 276.320312 " fill-opacity="1" fill-rule="nonzero"/>
        </g>
    </g>
</svg>
