<?xml version="1.0" encoding="UTF-8" standalone="no"?>
<svg
   width="333.5pt"
   height="310pt"
   viewBox="0 0 370.55597 344.44484"
   version="1.1"
   id="svg154"
   sodipodi:docname="qadence_logo_small_white.svg"
   xml:space="preserve"
   inkscape:version="1.2.2 (b0a84865, 2022-12-01)"
   xmlns:inkscape="http://www.inkscape.org/namespaces/inkscape"
   xmlns:sodipodi="http://sodipodi.sourceforge.net/DTD/sodipodi-0.dtd"
   xmlns="http://www.w3.org/2000/svg"
   xmlns:svg="http://www.w3.org/2000/svg"><g
     id="g460"
     transform="translate(-12.642308,-210.1069)"
     style="fill:#ffffff;fill-opacity:1"><path
       style="fill:#ffffff;stroke:#ffffff;stroke-width:11.8748;stroke-linecap:butt;stroke-linejoin:round;stroke-dasharray:none;stroke-opacity:1;fill-opacity:1"
       d="m 29.2631,262.38425 h 337.5"
       id="path853-0" /><path
       style="fill:#ffffff;fill-opacity:1;stroke:#ffffff;stroke-width:11.8752;stroke-linecap:butt;stroke-linejoin:round;stroke-dasharray:none;stroke-opacity:1"
       d="m 29.2631,502.33425 h 337.5"
       id="path853-7-4" /><path
       style="fill:#ffffff;stroke:#ffffff;stroke-width:11.8752;stroke-linecap:butt;stroke-linejoin:round;stroke-dasharray:none;stroke-opacity:1;fill-opacity:1"
       d="m 29.2631,423.58425 h 337.5"
       id="path853-7-9-6" /><path
       style="fill:#ffffff;stroke:#ffffff;stroke-width:11.8752;stroke-linecap:butt;stroke-linejoin:round;stroke-dasharray:none;stroke-opacity:1;fill-opacity:1"
       d="m 29.2631,341.08425 h 337.5"
       id="path853-7-9-5-4" /><path
       fill-rule="nonzero"
       fill="#03045e"
       fill-opacity="1"
       d="M 178.1719,457.33425 H 60.1436 c -8.8281,0 -15.9858,-7.15756 -15.9858,-15.98544 V 323.31967 c 0,-8.82788 7.1577,-15.98542 15.9858,-15.98542 h 118.0283 c 8.8321,0 15.9859,7.15754 15.9859,15.98542 v 118.02914 c 0,8.82788 -7.1538,15.98544 -15.9859,15.98544"
       id="path471-0-6"
       style="stroke-width:1.2;stroke-dasharray:none;fill:#ffffff;fill-opacity:1" /><path
       fill-rule="nonzero"
       fill="#023e8a"
       fill-opacity="1"
       d="M 335.6719,457.33425 H 217.6436 c -8.8281,0 -15.9858,-7.15756 -15.9858,-15.98544 V 323.31967 c 0,-8.82788 7.1577,-15.98542 15.9858,-15.98542 h 118.0283 c 8.8321,0 15.9859,7.15754 15.9859,15.98542 v 118.02914 c 0,8.82788 -7.1538,15.98544 -15.9859,15.98544"
       id="path473-6-4"
       style="stroke:none;stroke-width:2;stroke-dasharray:none;stroke-opacity:1;fill:#ffffff;fill-opacity:1" /><path
       fill-rule="nonzero"
       fill="#03045e"
       fill-opacity="1"
       d="m 178.1719,539.83425 h -43.0283 c -8.8281,0 -15.9858,-7.17678 -15.9858,-16.02838 v -42.94324 c 0,-8.85552 7.1577,-16.02838 15.9858,-16.02838 h 43.0283 c 8.8321,0 15.9859,7.17286 15.9859,16.02838 v 42.94324 c 0,8.8516 -7.1538,16.02838 -15.9859,16.02838"
       id="path475-5-3"
       style="stroke-width:1.00044;fill:#ffffff;fill-opacity:1" /><path
       fill-rule="nonzero"
       fill="#023e8a"
       fill-opacity="1"
       d="m 335.6719,299.83425 h -43.0283 c -8.8281,0 -15.9858,-7.1854 -15.9858,-16.04764 v -42.90472 c 0,-8.86224 7.1577,-16.04764 15.9858,-16.04764 h 43.0283 c 8.8321,0 15.9859,7.1854 15.9859,16.04764 v 42.90472 c 0,8.86224 -7.1538,16.04764 -15.9859,16.04764"
       id="path477-7-8"
       style="stroke:none;stroke-width:2;stroke-dasharray:none;stroke-opacity:1;fill:#ffffff;fill-opacity:1" /></g><defs
     id="defs158"><inkscape:path-effect
       effect="spiro"
       id="path-effect1998"
       is_visible="true"
       lpeversion="1" /></defs><sodipodi:namedview
     id="namedview156"
     pagecolor="#ffffff"
     bordercolor="#000000"
     borderopacity="0.25"
     inkscape:showpageshadow="2"
     inkscape:pageopacity="0.0"
     inkscape:pagecheckerboard="false"
     inkscape:deskcolor="#d1d1d1"
     inkscape:document-units="pt"
     showgrid="false"
     inkscape:zoom="0.84097929"
     inkscape:cx="329.97245"
     inkscape:cy="285.38158"
     inkscape:window-width="1352"
     inkscape:window-height="815"
     inkscape:window-x="1852"
     inkscape:window-y="369"
     inkscape:window-maximized="0"
     inkscape:current-layer="svg154"><inkscape:grid
       type="xygrid"
       id="grid277"
       originx="-43.796131"
       originy="-269.4398" /><sodipodi:guide
       position="-18.678444,398.88888"
       orientation="0,1757.1934"
       id="guide391"
       inkscape:locked="false" /><sodipodi:guide
       position="1445.6505,398.88888"
       orientation="420,0"
       id="guide393"
       inkscape:locked="false" /><sodipodi:guide
       position="1445.6505,48.888313"
       orientation="0,-1757.1934"
       id="guide395"
       inkscape:locked="false" /><sodipodi:guide
       position="-18.678444,48.888313"
       orientation="-420,0"
       id="guide397"
       inkscape:locked="false" /></sodipodi:namedview></svg>
