<?xml version="1.0" encoding="UTF-8"?><svg id="uuid-1da52ede-532c-4d34-bb28-c4b6a89fb1dc" xmlns="http://www.w3.org/2000/svg" viewBox="0 0 840.662 183.19106"><defs><style>.uuid-8493a878-ffbb-4f8d-8eba-41f12e71030b{fill:#e1f6e9;}</style></defs><path class="uuid-8493a878-ffbb-4f8d-8eba-41f12e71030b" d="M327.1163,82.39939c0-.01105.00087-.02123.00087-.03228h-.00162c-.03618-49.72113-40.68384-52.75396-50.92551-52.75396s-50.88933,3.03283-50.92551,52.75396h-.00162c0,.01105.00087.02123.00087.03228s-.00087.02123-.00087.03228h.00162c.03109,42.78842,30.12293,50.9943,45.04563,52.45216v7.40589c0,6.24939,5.08931,11.31541,11.36719,11.31541h21.31898v-9.74272h-20.35075v-9.03556c15.10859-1.61461,44.43921-10.15555,44.46998-52.39518h.00162c0-.01105-.00087-.02123-.00087-.03228ZM276.19003,124.32542c-29.67121,0-37.09594-26.18362-37.10591-41.92603.00997-15.74241,7.4347-41.92603,37.10591-41.92603s37.09594,26.18362,37.10591,41.92603c-.00997,15.74241-7.4347,41.92603-37.10591,41.92603ZM373.14521,59.5692c-18.56075,0-30.58137,8.83829-31.99536,23.33267h12.37485c1.23688-9.01541,7.77701-13.78732,18.38364-13.78732,11.31205,0,17.85229,5.30174,17.85229,14.31726v6.0102h-10.2524c-27.22193,0-41.71631,8.30847-41.71631,23.86412,0,13.25739,10.42951,21.56434,27.39905,21.56434,12.0191,0,20.8575-4.24198,24.74677-12.0191v10.07517l.17711.17722h12.19622v-46.31262c0-17.8537-9.89806-27.22193-29.16586-27.22193ZM389.76063,102.16956c-.35282,14.8486-8.48417,23.15555-22.2715,23.15555-10.60652,0-16.96954-4.77191-16.96954-12.55044,0-9.01389,8.30684-13.61021,24.21672-13.61021h15.02431v3.0051ZM474.89598,31.59683v40.30231c-5.65608-8.30847-13.2575-12.19622-23.86249-12.19622-20.5062,0-34.11641,14.67149-34.11641,37.11999,0,22.62713,13.96444,38.00567,34.64623,38.00567,10.60511,0,19.09069-4.4192,23.33267-12.19773v10.20061l.22879.22879h12.14454V31.59683h-12.37333ZM453.15453,125.28325c-14.31878,0-23.50989-10.96085-23.50989-28.1061,0-16.96954,9.19112-27.92887,23.33267-27.92887s22.44861,10.42788,22.44861,27.92887c0,17.67659-8.30695,28.1061-22.27139,28.1061ZM571.43697,94.84c-1.14448-30.58939-23.66426-34.93698-35.31266-34.93698-11.9541,0-34.60464,4.56598-34.60464,37.38745s23.4138,37.38745,35.36791,37.38745v-.91211l.00379.91211c4.97763-.05232,9.4329-.67661,13.37546-1.96278v.00986c.31187-.10345.61042-.2224.91612-.33332,4.44986-1.58667,8.17067-3.90443,11.06279-6.81745,3.63805-3.56548,6.10217-7.90679,7.18772-12.65011.20506-.89608.49809-2.58078.60631-4.44867h-12.12515c-.0052.04961-.00867.09338-.0143.14397-.66935,6.04844-3.28458,10.85524-8.92571,14.02098v.00238c-2.91779,1.61277-5.84923,2.43497-12.08323,2.43497-.00141,0-.00238.00574-.00379.00607v-.00758c-11.6028,0-21.86289-6.96673-22.68086-25.20911h57.2855v-5.00536l-.05525-.02177ZM536.35526,69.50469c11.06181,0,20.42961,4.44076,22.41785,20.88632h-44.15583c2.15246-14.81231,11.19777-20.88632,21.73799-20.88632ZM811.94464,94.84c-1.14448-30.58939-23.66426-34.93698-35.31266-34.93698-11.9541,0-34.60464,4.56598-34.60464,37.38745s23.4138,37.38745,35.36791,37.38745v-.91211l.00379.91211c4.97763-.05232,9.4329-.67661,13.37546-1.96278v.00986c.31187-.10345.61042-.2224.91612-.33332,4.44986-1.58667,8.17067-3.90443,11.06279-6.81745,3.63805-3.56548,6.10217-7.90679,7.18772-12.65011.20506-.89608.49809-2.58078.60631-4.44867h-12.12515c-.0052.04961-.00867.09338-.0143.14397-.66935,6.04844-3.28458,10.85524-8.92571,14.02098v.00238c-2.91779,1.61277-5.84923,2.43497-12.08323,2.43497-.00141,0-.00238.00574-.00379.00607v-.00758c-11.6028,0-21.86289-6.96673-22.68086-25.20911h57.2855v-5.00536l-.05525-.02177ZM776.86293,69.50469c11.06181,0,20.42961,4.44076,22.41785,20.88632h-44.15583c2.15246-14.81231,11.19777-20.88632,21.73799-20.88632ZM733.52779,107.01671c0,.27439-.03629,1.75219-.05655,2.00892-1.14913,14.59382-13.2601,25.87207-33.27416,25.64902-7.41314-.08265-35.33769-2.31528-35.33769-37.42493s27.85543-37.34672,35.33769-37.34672c20.1251,0,32.04704,10.71149,33.11557,25.14357.01907.25684.01213,1.73453.01213,2.00892l-12.05257-.00314c-.24374-3.49127-1.64137-8.66833-4.68504-11.83126-3.1833-3.3082-8.51559-5.71848-15.32719-5.72064v.00422c-12.0946,0-23.47837,7.76109-23.47902,27.78415.00065,20.02306,11.38441,27.78415,23.47902,27.78415v.00422c6.8116-.00217,12.14389-2.41244,15.32719-5.72064,3.04366-3.16293,4.87222-8.90697,4.87222-12.34766l12.06839.0078ZM650.14133,85.3122v47.77103h-11.59728l-.73814-.68051v-43.92748l-.00097.00022c0-6.55259-1.46068-18.75553-17.53966-18.75553-3.47827,0-19.96261.28945-22.02364,21.20458v42.15871h-12.33542V61.66712h11.98444v10.72275c4.9734-8.95009,13.97679-12.51881,23.74301-12.51881,0,0-.00552.03921-.0156.11212l.0156-.11201c24.01079,0,28.50756,14.3113,28.50756,25.44104h.00011Z"/><path class="uuid-8493a878-ffbb-4f8d-8eba-41f12e71030b" d="M174.29104,56.02465c1.07666,0,1.95215-.87598,1.95215-1.95215v-5.88574c0-1.07617-.87549-1.95215-1.95215-1.95215h-16.29785v-10.13977c0-3.3147-2.68713-6.00177-6.00183-6.00177h-18.99762c-3.31476,0-6.00183,2.68707-6.00183,6.00177v10.13977h-8.99994v-10.13977c0-3.3147-2.68707-6.00177-6.00183-6.00177h-18.99762c-3.3147,0-6.00183,2.68707-6.00183,6.00177v10.13977H30.69168c-1.07666,0-1.95264.87598-1.95264,1.95215v5.88574c0,1.07715.87598,1.95312,1.95264,1.95312h56.29901v31.1272h-8.99994v-7.49457c0-3.3147-2.68707-6.00183-6.00177-6.00183h-18.99768c-3.3147,0-6.00177,2.68713-6.00177,6.00183v7.49457l-16.29785.00098c-1.07666,0-1.95264.87598-1.95264,1.95215v5.88574c0,1.07617.87598,1.95215,1.95264,1.95215h16.29785v7.49463c0,3.3147,2.68707,6.00177,6.00177,6.00177h18.99768c3.3147,0,6.00177-2.68707,6.00177-6.00177v-7.49463h8.99994v7.49463c0,3.3147,2.68713,6.00177,6.00183,6.00177h18.99762c3.31476,0,6.00183-2.68707,6.00183-6.00177v-7.49463h8.99994v31.12726H30.69168c-1.07666,0-1.95264.87598-1.95264,1.95215v5.88672c0,1.07617.87598,1.95215,1.95264,1.95215h96.30023v10.13971c0,3.3147,2.68707,6.00183,6.00183,6.00183h18.99762c3.3147,0,6.00183-2.68713,6.00183-6.00183v-10.13971h16.29785c1.07666,0,1.95215-.87598,1.95215-1.95215v-5.88672c0-1.07617-.87549-1.95215-1.95215-1.95215h-16.29785v-31.12726h16.29785c1.07666,0,1.95215-.87598,1.95215-1.95312v-5.88574c0-1.07617-.87549-1.95215-1.95215-1.95215h-16.29785v-31.1272l16.29785-.00098ZM126.99191,87.15283h-8.99994v-31.1272h8.99994v31.1272Z"/></svg>
