<?xml version="1.0" encoding="UTF-8" standalone="no"?>
<svg
   width="1215.145pt"
   height="315pt"
   viewBox="0 0 1350.1622 349.99999"
   version="1.1"
   id="svg154"
   sodipodi:docname="qadence_white.svg"
   xml:space="preserve"
   inkscape:version="1.2.2 (b0a84865, 2022-12-01)"
   xmlns:inkscape="http://www.inkscape.org/namespaces/inkscape"
   xmlns:sodipodi="http://sodipodi.sourceforge.net/DTD/sodipodi-0.dtd"
   xmlns="http://www.w3.org/2000/svg"
   xmlns:svg="http://www.w3.org/2000/svg"><path
     style="fill:none;stroke:#ffffff;stroke-width:11.8748;stroke-linecap:butt;stroke-linejoin:round;stroke-dasharray:none;stroke-opacity:1"
     d="M 16.810581,55.04931 H 354.31058"
     id="path853-0" /><path
     style="fill:none;fill-opacity:1;stroke:#ffffff;stroke-width:11.8752;stroke-linecap:butt;stroke-linejoin:round;stroke-dasharray:none;stroke-opacity:1"
     d="M 16.810581,294.99931 H 354.31058"
     id="path853-7-4" /><path
     style="fill:none;stroke:#ffffff;stroke-width:11.8752;stroke-linecap:butt;stroke-linejoin:round;stroke-dasharray:none;stroke-opacity:1"
     d="M 16.810581,216.24931 H 354.31058"
     id="path853-7-9-6" /><path
     style="fill:none;stroke:#ffffff;stroke-width:11.8752;stroke-linecap:butt;stroke-linejoin:round;stroke-dasharray:none;stroke-opacity:1"
     d="M 16.810581,133.74931 H 354.31058"
     id="path853-7-9-5-4" /><path
     fill-rule="nonzero"
     fill="#03045e"
     fill-opacity="1"
     d="M 165.71938,249.99931 H 47.691081 c -8.8281,0 -15.9858,-7.15756 -15.9858,-15.98544 V 115.98473 c 0,-8.82788 7.1577,-15.98542 15.9858,-15.98542 H 165.71938 c 8.8321,0 15.9859,7.15754 15.9859,15.98542 v 118.02914 c 0,8.82788 -7.1538,15.98544 -15.9859,15.98544"
     id="path471-0-6"
     style="stroke-width:1.2;stroke-dasharray:none;fill:#ffffff;fill-opacity:1" /><path
     fill-rule="nonzero"
     fill="#023e8a"
     fill-opacity="1"
     d="m 323.21938,249.99931 h -118.0283 c -8.8281,0 -15.9858,-7.15756 -15.9858,-15.98544 V 115.98473 c 0,-8.82788 7.1577,-15.98542 15.9858,-15.98542 h 118.0283 c 8.8321,0 15.9859,7.15754 15.9859,15.98542 v 118.02914 c 0,8.82788 -7.1538,15.98544 -15.9859,15.98544"
     id="path473-6-4"
     style="stroke:none;stroke-width:2;stroke-dasharray:none;stroke-opacity:1;fill:#ffffff;fill-opacity:1" /><path
     fill-rule="nonzero"
     fill="#03045e"
     fill-opacity="1"
     d="m 165.71938,332.49931 h -43.0283 c -8.8281,0 -15.9858,-7.17678 -15.9858,-16.02838 v -42.94324 c 0,-8.85552 7.1577,-16.02838 15.9858,-16.02838 h 43.0283 c 8.8321,0 15.9859,7.17286 15.9859,16.02838 v 42.94324 c 0,8.8516 -7.1538,16.02838 -15.9859,16.02838"
     id="path475-5-3"
     style="stroke-width:1.00044;fill:#ffffff;fill-opacity:1" /><path
     fill-rule="nonzero"
     fill="#023e8a"
     fill-opacity="1"
     d="m 323.21938,92.49931 h -43.0283 c -8.8281,0 -15.9858,-7.1854 -15.9858,-16.04764 V 33.54695 c 0,-8.86224 7.1577,-16.04764 15.9858,-16.04764 h 43.0283 c 8.8321,0 15.9859,7.1854 15.9859,16.04764 v 42.90472 c 0,8.86224 -7.1538,16.04764 -15.9859,16.04764"
     id="path477-7-8"
     style="stroke:none;stroke-width:2;stroke-dasharray:none;stroke-opacity:1;fill:#ffffff;fill-opacity:1" /><g
     id="g450"
     transform="translate(-7.544809,-207.33555)"
     style="fill:#ffffff;fill-opacity:1"><path
       fill-rule="nonzero"
       fill="#03045e"
       fill-opacity="1"
       d="m 493.7935,479.83425 -18.0078,-26.37594 27.6591,-7.65618 24.0169,33.39052 v 0.6416 z m -34.7363,-47.43134 c 6.2908,0 11.4001,-0.21518 15.3318,-0.6416 3.9318,-0.42252 7.038,-1.4123 9.3306,-2.97718 2.2847,-1.55702 3.963,-4.1117 5.035,-7.65614 1.0719,-3.54444 1.7487,-8.43466 2.0382,-14.67852 0.2856,-6.23602 0.4304,-14.3186 0.4304,-24.24382 0,-9.92912 -0.1448,-18.00778 -0.4304,-24.24774 -0.2895,-6.23992 -0.9663,-11.13406 -2.0382,-14.6785 -1.072,-3.54052 -2.7503,-6.0952 -5.035,-7.65616 -2.2926,-1.55704 -5.3988,-2.55464 -9.3306,-2.97716 -3.9317,-0.42642 -9.041,-0.64158 -15.3318,-0.64158 -6.1461,0 -11.1889,0.21516 -15.1167,0.64158 -3.9318,0.42252 -7.042,1.42012 -9.3267,2.97716 -2.2886,1.56096 -3.9669,4.11564 -5.0428,7.65616 -1.068,3.54444 -1.7487,8.43858 -2.0343,14.6785 -0.2856,6.23996 -0.4265,14.31864 -0.4265,24.24774 0,9.92522 0.1408,18.0078 0.4265,24.24382 0.2856,6.24386 0.9663,11.13408 2.0343,14.67852 1.0759,3.54444 2.7542,6.09912 5.0428,7.65614 2.2847,1.56488 5.3949,2.55466 9.3267,2.97718 3.9278,0.42642 8.9706,0.6416 15.1167,0.6416 m 0,24.67026 c -12.0065,0 -21.9083,-0.71202 -29.6974,-2.12822 -7.7931,-1.41624 -13.9039,-3.79094 -18.3325,-7.12412 -4.4365,-3.32926 -7.6484,-7.8674 -9.6514,-13.6144 -2.0031,-5.7431 -3.2902,-12.86718 -3.8574,-21.37616 -0.5751,-8.50512 -0.8607,-18.71592 -0.8607,-30.62462 0,-11.9126 0.2856,-22.1234 0.8607,-30.63242 0.5672,-8.50898 1.8543,-15.63308 3.8574,-21.37618 2.003,-5.74308 5.2149,-10.2773 9.6514,-13.61048 4.4286,-3.32928 10.5394,-5.70788 18.3325,-7.12408 7.7891,-1.41622 17.6909,-2.12824 29.6974,-2.12824 12.0104,0 21.9082,0.71202 29.6974,2.12824 7.793,1.4162 13.9039,3.7948 18.3364,7.12408 4.4286,3.33318 7.6835,7.8674 9.757,13.61048 2.0695,5.7431 3.3918,12.8672 3.9669,21.37618 0.5712,8.50902 0.8568,18.71982 0.8568,30.63242 0,11.9087 -0.2856,22.1195 -0.8568,30.62462 -0.5751,8.50898 -1.8974,15.63306 -3.9669,21.37616 -2.0735,5.747 -5.3284,10.28514 -9.757,13.6144 -4.4325,3.33318 -10.5434,5.70788 -18.3364,7.12412 -7.7892,1.4162 -17.687,2.12822 -29.6974,2.12822"
       id="path479-3-4"
       style="stroke-width:1.00152;fill:#ffffff;fill-opacity:1" /><path
       fill-rule="nonzero"
       fill="#03045e"
       fill-opacity="1"
       d="m 734.4712,431.96475 h 18.4538 c 7.1748,0 13.0706,-0.1798 17.683,-0.5438 4.6124,-0.35992 8.2704,-1.27146 10.9816,-2.72678 2.7072,-1.44754 4.6476,-3.95132 5.8212,-7.51532 1.1698,-3.55618 1.9404,-8.46204 2.3082,-14.70592 0.3638,-6.24384 0.5478,-14.30684 0.5478,-24.18512 0,-9.7296 -0.184,-17.75742 -0.5478,-24.07952 -0.3678,-6.31426 -1.1736,-11.22014 -2.4176,-14.70198 -1.248,-3.48968 -3.2238,-5.99348 -5.931,-7.51922 -2.7112,-1.52574 -6.3338,-2.4686 -10.872,-2.83242 -4.542,-0.35994 -10.3986,-0.54378 -17.5734,-0.54378 h -18.4538 z m -31.192,25.27664 V 307.33425 h 51.4022 c 13.0316,0 23.6884,0.65334 31.9626,1.96 8.2704,1.30668 14.7882,3.5953 19.5492,6.8659 4.7572,3.26666 8.2,7.76958 10.3244,13.50876 2.1204,5.73918 3.474,12.89064 4.0608,21.46226 0.5828,8.5716 0.8802,18.95452 0.8802,31.15664 0,12.20212 -0.2974,22.58894 -0.8802,31.15666 -0.5868,8.57158 -1.9404,15.72698 -4.0608,21.46224 -2.1244,5.73918 -5.5672,10.2421 -10.3244,13.50878 -4.761,3.26668 -11.2788,5.5553 -19.5492,6.8659 -8.2742,1.30666 -18.931,1.96 -31.9626,1.96 z m 0,0"
       id="path481-4-0"
       style="stroke-width:1.00152;fill:#ffffff;fill-opacity:1" /><path
       fill-rule="nonzero"
       fill="#03045e"
       fill-opacity="1"
       d="M 842.8778,457.24139 V 307.33425 h 103.2386 v 25.27664 h -72.0468 v 36.38332 h 61.7226 v 25.27662 h -61.7226 v 37.69392 h 72.0468 v 25.27664 z m 0,0"
       id="path483-3-0"
       style="stroke-width:1.00152;fill:#ffffff;fill-opacity:1" /><path
       fill-rule="nonzero"
       fill="#03045e"
       fill-opacity="1"
       d="M 969.2374,457.24139 V 307.33425 h 32.2874 l 59.5278,92.38234 h 1.0994 v -92.38234 h 29.8734 v 149.90714 h -29.6544 l -62.1608,-97.39388 h -1.0992 v 97.39388 z m 0,0"
       id="path485-0-9"
       style="stroke-width:1.00152;fill:#ffffff;fill-opacity:1" /><path
       fill-rule="nonzero"
       fill="#03045e"
       fill-opacity="1"
       d="m 1175.8792,457.07317 c -10.8682,0 -19.9444,-0.71202 -27.2366,-2.12822 -7.2886,-1.41232 -13.2232,-3.82614 -17.7926,-7.22974 -4.5814,-3.4036 -8.0436,-7.94174 -10.4026,-13.6144 -2.359,-5.66876 -3.967,-12.76156 -4.8238,-21.27054 -0.8566,-8.50512 -1.287,-18.71592 -1.287,-30.62462 0,-11.9126 0.4304,-22.1234 1.287,-30.63242 0.8568,-8.50508 2.4648,-15.59396 4.8238,-21.26662 2.359,-5.67268 5.8212,-10.21082 10.4026,-13.61442 4.5694,-3.4036 10.504,-5.8135 17.7926,-7.23362 7.2922,-1.4123 16.3684,-2.12432 27.2366,-2.12432 4.143,0 8.4698,0.1448 12.9688,0.42642 4.5068,0.2856 8.826,0.70812 12.9768,1.27538 4.143,0.56726 7.6444,1.20496 10.5042,1.91306 v 23.18752 c -3.8574,-0.42642 -7.578,-0.81766 -11.1498,-1.17366 -3.5756,-0.35208 -6.8972,-0.60246 -9.9682,-0.7433 -3.0788,-0.1408 -5.6844,-0.2152 -7.8322,-0.2152 -7.2884,0 -13.2898,0.2856 -18.0078,0.85286 -4.718,0.56728 -8.4698,1.74094 -11.2592,3.50924 -2.7854,1.77614 -4.8238,4.46772 -6.1108,8.08258 -1.2872,3.61486 -2.144,8.47772 -2.5744,14.56898 -0.4262,6.0991 -0.6416,13.82568 -0.6416,23.18752 0,9.21712 0.2154,16.90848 0.6416,23.07408 0.4304,6.1695 1.2872,11.06366 2.5744,14.67852 1.287,3.61486 3.3254,6.31034 6.1108,8.08258 2.7894,1.77222 6.5412,2.94196 11.2592,3.50922 4.718,0.56728 10.7194,0.84894 18.0078,0.84894 4.722,0 9.8666,-0.21126 15.4452,-0.63768 5.571,-0.42642 10.3596,-0.91936 14.3656,-1.49054 v 23.61396 c -3.1492,0.56726 -6.8658,1.09538 -11.1536,1.59226 -4.2878,0.49684 -8.6812,0.88416 -13.188,1.16974 -4.499,0.28168 -8.8258,0.42644 -12.9688,0.42644"
       id="path487-4-3"
       style="stroke-width:1.00152;fill:#ffffff;fill-opacity:1" /><path
       fill-rule="nonzero"
       fill="#03045e"
       fill-opacity="1"
       d="M 1237.2574,457.24139 V 307.33425 H 1340.5 v 25.27664 h -72.0506 v 36.38332 h 61.7264 v 25.27662 h -61.7264 v 37.69392 H 1340.5 v 25.27664 z m 0,0"
       id="path489-8-7"
       style="stroke-width:1.00152;fill:#ffffff;fill-opacity:1" /><path
       fill-rule="nonzero"
       fill="#03045e"
       fill-opacity="1"
       d="M 630.0784,307.33425 H 588.3432 L 537.16,457.24139 h 31.1919 l 7.6327,-23.4966 33.2223,-98.3015 20.8715,63.61998 h -25.6288 l -8.02,25.05754 h 41.7744 l 11.2044,33.12058 h 31.8492 z m 0,0"
       id="path491-7-5"
       style="stroke-width:1.00152;fill:#ffffff;fill-opacity:1" /></g><defs
     id="defs158"><inkscape:path-effect
       effect="spiro"
       id="path-effect1998"
       is_visible="true"
       lpeversion="1" /></defs><sodipodi:namedview
     id="namedview156"
     pagecolor="#ffffff"
     bordercolor="#000000"
     borderopacity="0.25"
     inkscape:showpageshadow="2"
     inkscape:pageopacity="0.0"
     inkscape:pagecheckerboard="false"
     inkscape:deskcolor="#d1d1d1"
     inkscape:document-units="pt"
     showgrid="false"
     inkscape:zoom="0.66316536"
     inkscape:cx="625.78661"
     inkscape:cy="144.76028"
     inkscape:window-width="1512"
     inkscape:window-height="862"
     inkscape:window-x="0"
     inkscape:window-y="38"
     inkscape:window-maximized="1"
     inkscape:current-layer="svg154"><inkscape:grid
       type="xygrid"
       id="grid277"
       originx="-25.117624"
       originy="-249.99566" /><sodipodi:guide
       position="0,350.00031"
       orientation="0,1757.1934"
       id="guide391"
       inkscape:locked="false" /><sodipodi:guide
       position="1464.3279,350.00031"
       orientation="420,0"
       id="guide393"
       inkscape:locked="false" /><sodipodi:guide
       position="1464.3279,-4.0473714e-08"
       orientation="0,-1757.1934"
       id="guide395"
       inkscape:locked="false" /><sodipodi:guide
       position="0,-4.0473714e-08"
       orientation="-420,0"
       id="guide397"
       inkscape:locked="false" /></sodipodi:namedview></svg>
